<?xml version="1.0" encoding="utf-8"?>
<!-- Generator: Adobe Illustrator 21.1.0, SVG Export Plug-In . SVG Version: 6.00 Build 0)  -->
<svg version="1.1" id="圖層_1" xmlns="http://www.w3.org/2000/svg" xmlns:xlink="http://www.w3.org/1999/xlink" x="0px" y="0px"
	 viewBox="0 0 395.7 79.9" style="enable-background:new 0 0 395.7 79.9;" xml:space="preserve">
<style type="text/css">
	.st0{fill:#FFFFFF;}
	.st1{fill:#007FFF;}
	.st2{fill:#007FFF;stroke:#007FFF;stroke-width:0.25;stroke-miterlimit:10;}
</style>
<g>
	<rect x="239.2" y="1.5" class="st0" width="155" height="77"/>
	<path class="st1" d="M392.7,3v74h-152V3H392.7 M395.7,0h-158v80h158V0L395.7,0z"/>
</g>
<rect class="st1" width="237.7" height="80"/>
<g>
	<path class="st0" d="M21.3,71.2h-9.5v-63h27.1v9.6H21.3v17.2h12.8v9.6H21.3V71.2z"/>
	<path class="st0" d="M60.4,71.9c-4.2,0-7.7-1.5-10.7-4.4c-2.9-2.9-4.4-6.5-4.4-10.6V8.2h9.3v48.6c0,1.5,0.5,2.8,1.6,3.8
		c1.1,1.1,2.4,1.6,3.9,1.6s2.8-0.5,3.8-1.6c1.1-1.1,1.6-2.3,1.6-3.8V8.2h9.9v48.7c0,4.2-1.5,7.8-4.4,10.7
		C68.1,70.4,64.5,71.9,60.4,71.9z"/>
	<path class="st0" d="M93.1,17.7H83V8.2h29.7v9.6h-10.1v53.4h-9.5V17.7z"/>
	<path class="st0" d="M135.3,71.9c-4.2,0-7.7-1.5-10.7-4.4c-2.9-2.9-4.4-6.5-4.4-10.6V8.2h9.3v48.6c0,1.5,0.5,2.8,1.6,3.8
		c1.1,1.1,2.4,1.6,3.9,1.6s2.8-0.5,3.8-1.6c1.1-1.1,1.6-2.3,1.6-3.8V8.2h9.9v48.7c0,4.2-1.5,7.8-4.4,10.7
		C143,70.4,139.5,71.9,135.3,71.9z"/>
	<path class="st0" d="M173.8,8.2c5.3,0,9.2,1.5,11.7,4.4c2.2,2.5,3.3,6.1,3.3,10.7v9.2c0,4.5-1.7,8.2-5.1,11.3l7,27.5h-10.3
		l-5.8-23.7c-0.3,0-0.6,0-0.9,0h-5.5v23.7h-9.5v-63H173.8z M179.5,23.4c0-3.7-1.8-5.5-5.4-5.5h-5.7V38h5.7c1.5,0,2.8-0.5,3.8-1.6
		c1.1-1.1,1.6-2.4,1.6-3.9V23.4z"/>
	<path class="st0" d="M198.9,71.2v-63h27.1v9.6h-17.5v17.2h12.8v9.6h-12.8v17.2h17.5v9.6H198.9z"/>
</g>
<g>
	<path class="st2" d="M275.7,56.4c0,4.2-1.5,7.7-4.4,10.7c-2.9,2.9-6.4,4.4-10.6,4.4h-14.9v-63h14.9c4.2,0,7.7,1.5,10.6,4.4
		c2.9,2.9,4.3,6.5,4.3,10.6V56.4z M255.3,62.1h5.7c1.5,0,2.8-0.5,3.8-1.6c1-1.1,1.6-2.4,1.6-3.8v-33c0-1.5-0.5-2.8-1.6-3.9
		c-1.1-1.1-2.3-1.6-3.8-1.6h-5.7V62.1z"/>
	<path class="st2" d="M298.9,7.7c4.2,0,7.7,1.5,10.7,4.4c2.9,2.9,4.4,6.5,4.4,10.7v34.4c0,4.2-1.5,7.8-4.4,10.7
		c-2.9,2.9-6.5,4.4-10.7,4.4c-4.2,0-7.7-1.5-10.7-4.4c-2.9-2.9-4.4-6.5-4.4-10.7V22.8c0-4.2,1.5-7.8,4.4-10.7
		C291.2,9.2,294.8,7.7,298.9,7.7z M304.1,22.6c0-1.5-0.5-2.8-1.6-3.8c-1.1-1.1-2.3-1.6-3.8-1.6s-2.8,0.5-3.9,1.6
		c-1.1,1.1-1.6,2.3-1.6,3.8v34.5c0,1.5,0.5,2.8,1.6,3.8c1.1,1.1,2.4,1.6,3.9,1.6s2.8-0.5,3.8-1.6c1.1-1.1,1.6-2.3,1.6-3.8V22.6z"/>
	<path class="st2" d="M337.2,72.3c-4.2,0-7.7-1.5-10.7-4.4c-2.9-2.9-4.4-6.5-4.4-10.6V22.9c0-4.2,1.5-7.7,4.4-10.7
		c2.9-2.9,6.5-4.4,10.7-4.4c4.2,0,7.7,1.5,10.7,4.4c2.9,2.9,4.4,6.5,4.4,10.7v7.2h-9.9v-7.4c0-1.5-0.5-2.8-1.6-3.9
		c-1.1-1.1-2.4-1.6-3.9-1.6s-2.8,0.5-3.8,1.6c-1.1,1.1-1.6,2.4-1.6,3.9v34.5c0,1.5,0.5,2.8,1.6,3.8c1.1,1.1,2.3,1.6,3.8,1.6
		s2.8-0.5,3.9-1.6c1.1-1.1,1.6-2.3,1.6-3.8V44.8h-5.3v-9.6h15.1v22c0,4.2-1.5,7.7-4.4,10.7C344.9,70.8,341.4,72.3,337.2,72.3z"/>
	<path class="st2" d="M360.5,71.5v-63h27.1V18H370v17.2h12.8v9.6H370v17.2h17.5v9.6H360.5z"/>
</g>
</svg>
