<?xml version="1.0" encoding="utf-8"?>
<!-- Generator: Adobe Illustrator 21.1.0, SVG Export Plug-In . SVG Version: 6.00 Build 0)  -->
<svg version="1.1" id="圖層_1" xmlns="http://www.w3.org/2000/svg" xmlns:xlink="http://www.w3.org/1999/xlink" x="0px" y="0px"
	 viewBox="0 0 395.7 79.9" style="enable-background:new 0 0 395.7 79.9;" xml:space="preserve">
<style type="text/css">
	.st0{fill:#007FFF;}
	.st1{fill:none;}
</style>
<g>
	<path class="st0" d="M86.1,0.1v12l-22,55.2h22v11.9H51.3v-12l22-55.2l-22,0.1v-12C51.3,0.1,86.1,0.1,86.1,0.1z"/>
	<path class="st0" d="M114.8,80c-5.3,0-9.7-1.8-13.4-5.5c-3.7-3.7-5.5-8.1-5.5-13.3V0.1h11.7v61c0,1.9,0.7,3.5,2,4.8s3,2,4.9,2
		s3.5-0.7,4.8-2s2-2.9,2-4.8v-61h12.4v61.1c0,5.3-1.9,9.8-5.6,13.4C124.5,78.2,120,80,114.8,80z"/>
	<path class="st0" d="M163.2,0c6.6,0,11.5,1.8,14.6,5.5c2.7,3.2,4.1,7.7,4.1,13.4v7.8c0,5.6-2.1,10.3-6.4,14.2l8.8,38.3h-12.9
		l-7.2-33.5c-0.3,0-0.7,0-1.1,0h-6.9v33.5h-11.9V0H163.2z M170.3,19.1c0-4.6-2.3-6.9-6.8-6.9h-7.2v21.6h7.2c1.9,0,3.5-0.7,4.8-2
		s2-3,2-4.9V19.1z"/>
	<path class="st0" d="M194.6,79.1V0h33.9v12h-22v21.6h16.1v12h-16.1v21.6h22v12L194.6,79.1L194.6,79.1z"/>
	<g>
		<polygon class="st1" points="21.6,18.2 17.2,49.3 26,49.3 		"/>
		<polygon class="st0" points="29.8,0.1 13.4,0.1 0,79.1 12.4,79.1 15.3,60.9 17.2,49.3 21.6,18.2 26,49.3 27.8,60.9 30.6,79.1 
			43.1,79.1 		"/>
	</g>
	<polygon class="st0" points="395.7,39.6 337.3,0 337.3,33.5 0,33.5 0,45.7 337.3,45.7 337.3,79.1 	"/>
</g>
</svg>
