<?xml version="1.0" encoding="utf-8"?>
<!-- Generator: Adobe Illustrator 21.1.0, SVG Export Plug-In . SVG Version: 6.00 Build 0)  -->
<svg version="1.1" id="圖層_1" xmlns="http://www.w3.org/2000/svg" xmlns:xlink="http://www.w3.org/1999/xlink" x="0px" y="0px"
	 viewBox="0 0 395.7 79.9" style="enable-background:new 0 0 395.7 79.9;" xml:space="preserve">
<style type="text/css">
	.st0{fill:#FFFFFF;}
	.st1{fill:#007FFF;}
	.st2{fill:none;stroke:#FFFFFF;}
</style>
<rect x="237.7" class="st0" width="158" height="80"/>
<rect class="st1" width="237.7" height="80"/>
<g>
	<path class="st2" d="M14.1,73.5H3.9V6.4h28.8v10.2H14.1v18.3h13.6V45H14.1V73.5z"/>
	<path class="st2" d="M55.7,74.2c-4.5,0-8.2-1.6-11.3-4.7c-3.1-3.1-4.7-6.9-4.7-11.3V6.4h9.9v51.7c0,1.6,0.6,3,1.7,4.1
		c1.1,1.1,2.5,1.7,4.1,1.7c1.6,0,3-0.6,4.1-1.7c1.1-1.1,1.7-2.5,1.7-4.1V6.4h10.5v51.9c0,4.5-1.6,8.3-4.7,11.3
		C63.9,72.7,60.1,74.2,55.7,74.2z"/>
	<path class="st2" d="M90.6,16.6H79.8V6.4h31.6v10.2h-10.7v56.9H90.6V16.6z"/>
	<path class="st2" d="M135.5,74.2c-4.5,0-8.2-1.6-11.3-4.7c-3.1-3.1-4.7-6.9-4.7-11.3V6.4h9.9v51.7c0,1.6,0.6,3,1.7,4.1
		c1.1,1.1,2.5,1.7,4.1,1.7c1.6,0,3-0.6,4.1-1.7c1.1-1.1,1.7-2.5,1.7-4.1V6.4h10.5v51.9c0,4.5-1.6,8.3-4.7,11.3
		C143.7,72.7,139.9,74.2,135.5,74.2z"/>
	<path class="st2" d="M176.5,6.4c5.6,0,9.8,1.6,12.4,4.7c2.3,2.7,3.5,6.5,3.5,11.3v9.7c0,4.7-1.8,8.8-5.4,12l7.5,29.3h-10.9
		l-6.1-25.3c-0.3,0-0.6,0-0.9,0h-5.8v25.3h-10.1V6.4H176.5z M182.5,22.6c0-3.9-1.9-5.8-5.8-5.8h-6.1v21.5h6.1c1.6,0,3-0.6,4.1-1.7
		c1.1-1.1,1.7-2.5,1.7-4.1V22.6z"/>
	<path class="st2" d="M203.1,73.5V6.4h28.8v10.2h-18.7v18.3h13.6V45h-13.6v18.3h18.7v10.2H203.1z"/>
</g>
<g>
	<path class="st1" d="M274.6,57.4c0,4.4-1.6,8.2-4.7,11.3s-6.8,4.7-11.2,4.7h-15.9V6.4h15.9c4.4,0,8.2,1.6,11.3,4.7
		c3.1,3.1,4.6,6.9,4.6,11.3V57.4z M253,63.5h6.1c1.6,0,3-0.6,4.1-1.7c1.1-1.2,1.7-2.5,1.7-4.1V22.5c0-1.6-0.6-3-1.7-4.1
		c-1.1-1.1-2.5-1.7-4-1.7H253V63.5z"/>
	<path class="st1" d="M299.4,5.6c4.5,0,8.2,1.6,11.4,4.7s4.7,6.9,4.7,11.3v36.6c0,4.5-1.6,8.3-4.7,11.4c-3.1,3.1-6.9,4.7-11.3,4.7
		c-4.5,0-8.2-1.6-11.3-4.7c-3.1-3.1-4.7-6.9-4.7-11.3V21.6c0-4.5,1.6-8.3,4.7-11.4C291.2,7.1,295,5.6,299.4,5.6z M304.9,21.4
		c0-1.6-0.6-3-1.7-4.1c-1.1-1.1-2.5-1.7-4.1-1.7s-3,0.6-4.1,1.7c-1.1,1.1-1.7,2.5-1.7,4.1v36.7c0,1.6,0.6,3,1.7,4.1
		c1.1,1.1,2.5,1.7,4.1,1.7s3-0.6,4.1-1.7c1.1-1.1,1.7-2.5,1.7-4.1V21.4z"/>
	<path class="st1" d="M340.2,74.3c-4.5,0-8.2-1.6-11.4-4.7c-3.1-3.1-4.7-6.9-4.7-11.3V21.7c0-4.5,1.6-8.2,4.7-11.4
		c3.1-3.1,6.9-4.7,11.3-4.7c4.5,0,8.2,1.6,11.3,4.7c3.1,3.1,4.7,6.9,4.7,11.3v7.7h-10.5v-7.9c0-1.6-0.6-3-1.7-4.1
		c-1.1-1.1-2.5-1.7-4.1-1.7s-3,0.6-4.1,1.7c-1.1,1.1-1.7,2.5-1.7,4.1v36.7c0,1.6,0.6,3,1.7,4.1c1.1,1.1,2.5,1.7,4.1,1.7
		s3-0.6,4.1-1.7c1.1-1.1,1.7-2.5,1.7-4.1V45.1h-5.6V34.9h16.1v23.4c0,4.5-1.6,8.2-4.7,11.3C348.3,72.8,344.6,74.3,340.2,74.3z"/>
	<path class="st1" d="M365,73.5V6.4h28.8v10.2h-18.7v18.3h13.6V45h-13.6v18.3h18.7v10.2H365z"/>
</g>
</svg>
